<svg xmlns="http://www.w3.org/2000/svg" viewBox="0 0 48 48" width="20" height="20">
  <path fill="#00c300" d="M44,21.1c0-10.3-8.9-18.6-20-18.6S4,10.8,4,21.1c0,9.2,7.1,16.9,16.6,18.3c0.6,0.1,1.5,0.4,1.8,1.1c0.3,0.6,0.2,1.6,0.1,2.2c0,0-0.4,2.5-0.5,3c-0.1,0.7-0.7,2.8,3,1.5c3.7-1.3,20-11.8,20-20.1C44,25.3,44,21.1,44,21.1z M15.3,27.1h-3.3c-0.6,0-1-0.4-1-1v-8.1c0-0.6,0.4-1,1-1s1,0.4,1,1v7.1h2.3c0.6,0,1,0.4,1,1S15.8,27.1,15.3,27.1z M19,26.1v-8.1c0-0.6,0.4-1,1-1s1,0.4,1,1v8.1c0,0.6-0.4,1-1,1S19,26.6,19,26.1z M28.7,26.1c0,0.3-0.1,0.5-0.3,0.7c-0.2,0.2-0.4,0.3-0.7,0.3s-0.5-0.1-0.7-0.3l-3.3-4.6v3.9c0,0.6-0.4,1-1,1s-1-0.4-1-1v-8.1c0-0.3,0.1-0.5,0.3-0.7c0.2-0.2,0.4-0.3,0.7-0.3s0.5,0.1,0.7,0.3l3.3,4.6v-3.9c0-0.6,0.4-1,1-1s1,0.4,1,1V26.1z M35.3,21.1h-2.3v1.3h2.3c0.6,0,1,0.4,1,1s-0.4,1-1,1h-2.3v1.3h2.3c0.6,0,1,0.4,1,1s-0.4,1-1,1h-3.3c-0.6,0-1-0.4-1-1v-8.1c0-0.6,0.4-1,1-1h3.3c0.6,0,1,0.4,1,1S35.8,21.1,35.3,21.1z"/>
</svg>
